<svg xmlns="http://www.w3.org/2000/svg" version="1.1" xmlns:xlink="http://www.w3.org/1999/xlink" xmlns:svgjs="http://svgjs.dev/svgjs" width="1500" height="234" viewBox="0 0 1500 234"><g transform="matrix(1,0,0,1,-0.9090909090909918,0.9489719120606424)"><svg viewBox="0 0 396 62" data-background-color="#ffffff" preserveAspectRatio="xMidYMid meet" height="234" width="1500" xmlns="http://www.w3.org/2000/svg" xmlns:xlink="http://www.w3.org/1999/xlink"><g id="tight-bounds" transform="matrix(1,0,0,1,0.2400000000000091,-0.22249428165932272)"><svg viewBox="0 0 395.52 62.444988563318624" height="62.444988563318624" width="395.52"><g><svg viewBox="0 0 607.031922416648 95.83864647268634" height="62.444988563318624" width="395.52"><g><rect width="6.253855314319836" height="83.21734860146424" x="411.89134899036605" y="6.310648935611049" fill="#113f67" opacity="1" stroke-width="0" stroke="transparent" fill-opacity="1" class="rect-qz-0" data-fill-palette-color="primary" rx="1%" id="qz-0" data-palette-color="#113f67"></rect></g><g transform="matrix(1,0,0,1,0,13.245427985733066)"><svg viewBox="0 0 395.52 69.3477905012202" height="69.3477905012202" width="395.52"><g id="textblocktransform"><svg viewBox="0 0 395.52 69.3477905012202" height="69.3477905012202" width="395.52" id="textblock"><g><svg viewBox="0 0 395.52 69.3477905012202" height="69.3477905012202" width="395.52"><g transform="matrix(1,0,0,1,0,0)"><svg width="395.52" viewBox="0.45 -33.65 266.33 46.7" height="69.3477905012202" data-palette-color="#113f67"><path d="M24.35-26.35Q24.1-27.15 22.43-27.78 20.75-28.4 18.05-28.4L18.05-28.4Q15.1-28.4 13.45-26.75 11.8-25.1 11.8-22.6L11.8-22.6Q11.8-21.05 12.93-20.23 14.05-19.4 16.4-18.4L16.4-18.4 18.2-17.65 19.7-16.95Q22.4-15.75 23.98-14.78 25.55-13.8 26.65-12.1 27.75-10.4 27.75-7.75L27.75-7.75Q27.75-4.9 25.88-2.83 24-0.75 20.65 0.33 17.3 1.4 12.85 1.4L12.85 1.4Q9.55 1.4 6.68 0.38 3.8-0.65 2.13-2.2 0.45-3.75 0.45-5.25L0.45-5.25Q0.45-6.7 1.7-7.63 2.95-8.55 5.25-8.9L5.25-8.9Q5.5-7.45 6.95-6.3 8.4-5.15 10.33-4.48 12.25-3.8 13.7-3.8L13.7-3.8Q16.35-3.8 18.43-4.85 20.5-5.9 20.5-7.75L20.5-7.75Q20.5-9.3 19.03-10.33 17.55-11.35 14.6-12.55L14.6-12.55 11.95-13.75Q8.7-15.35 6.8-17.35 4.9-19.35 4.9-22.65L4.9-22.65Q4.9-26.3 6.95-28.58 9-30.85 11.93-31.85 14.85-32.85 17.65-32.85L17.65-32.85Q22.1-32.85 24.98-31.7 27.85-30.55 29.15-28.8 30.45-27.05 30.45-25.2L30.45-25.2Q30.45-24.15 29.93-22.65 29.4-21.15 28.38-20.05 27.35-18.95 25.9-18.95L25.9-18.95Q23.4-18.95 23.4-21.55L23.4-21.55Q23.5-22.35 23.85-24.18 24.2-26 24.35-26.35L24.35-26.35ZM41.5 1.05Q36.6 1.05 34.35-0.9 32.1-2.85 32.1-6.1L32.1-6.1Q32.1-10.85 34.47-14.9 36.85-18.95 40.82-21.33 44.8-23.7 49.4-23.7L49.4-23.7Q52.2-23.7 54.1-22.13 56-20.55 56-17.5L56-17.5Q56-15.75 54.87-14.63 53.75-13.5 51.65-12.63 49.55-11.75 44.85-10.15L44.85-10.15Q40.6-8.75 37.95-7.8L37.95-7.8Q37.75-7.05 37.75-6.25L37.75-6.25Q37.75-4.85 38.92-4.1 40.1-3.35 42.25-3.35L42.25-3.35Q43.6-3.35 45.35-3.9 47.1-4.45 47.55-5.3L47.55-5.3Q49.25-8.4 50.65-8.4L50.65-8.4Q52.7-8.4 53.42-7.63 54.15-6.85 54.2-5.9L54.2-5.9Q53.6-4.3 51.85-2.68 50.1-1.05 47.4 0 44.7 1.05 41.5 1.05L41.5 1.05ZM39.35-12.4Q44.3-14 47.5-15.38 50.7-16.75 50.7-18.1L50.7-18.1Q50.7-18.7 50.05-19.07 49.4-19.45 48.65-19.45L48.65-19.45Q47.15-19.45 45.22-18.3 43.3-17.15 41.65-15.5 40-13.85 39.35-12.4L39.35-12.4ZM79.9-5.9Q79.3-4.3 77.55-2.68 75.8-1.05 73.09 0 70.4 1.05 67.2 1.05L67.2 1.05Q62.3 1.05 59.95-0.98 57.6-3 57.6-6.25L57.6-6.25Q57.6-10.95 60-14.98 62.4-19 66.45-21.35 70.5-23.7 75.09-23.7L75.09-23.7Q77.95-23.7 79.82-22.03 81.7-20.35 81.7-17.5L81.7-17.5Q81.7-16.4 80.8-15.68 79.9-14.95 78.4-14.95L78.4-14.95Q77.2-14.95 76.77-15.5 76.34-16.05 76.34-16.95L76.34-16.95 76.4-18.1Q76.4-18.7 75.75-19.07 75.09-19.45 74.34-19.45L74.34-19.45Q72.8-19.45 70.17-17.6 67.55-15.75 65.57-12.73 63.6-9.7 63.6-6.25L63.6-6.25Q63.6-4.85 64.7-4.1 65.8-3.35 67.95-3.35L67.95-3.35Q69.3-3.35 71.05-3.9 72.8-4.45 73.25-5.3L73.25-5.3Q74.95-8.4 76.34-8.4L76.34-8.4Q78.4-8.4 79.12-7.63 79.84-6.85 79.9-5.9L79.9-5.9ZM102.99-0.15Q102.79 0.7 102.09 1.03 101.39 1.35 100.24 1.35L100.24 1.35Q96.79 1.35 96.79-0.2L96.79-0.2 97.09-2.1Q95.69-1.05 93.79 0 91.89 1.05 90.64 1.05L90.64 1.05Q83.24 1.05 83.24-3.8L83.24-3.8Q83.24-12.05 88.19-21.7L88.19-21.7Q88.79-22.85 89.47-23.35 90.14-23.85 91.79-23.85L91.79-23.85Q93.54-23.85 94.42-23.38 95.29-22.9 95.29-22.25L95.29-22.25Q95.29-22.1 94.74-21.35L94.74-21.35Q94.19-20.7 93.79-20.05L93.79-20.05Q89.09-12.2 89.09-4.75L89.09-4.75Q89.09-4.1 89.59-3.6 90.09-3.1 90.49-3.1L90.49-3.1Q91.59-3.1 94.22-4.15 96.84-5.2 98.24-6.3L98.24-6.3 99.24-10.35Q101.04-17.6 101.49-19.25L101.49-19.25Q102.04-21.25 102.92-22.53 103.79-23.8 105.69-23.8L105.69-23.8Q108.34-23.8 108.34-22.2L108.34-22.2Q108.34-21.95 108.22-21.58 108.09-21.2 108.04-20.95L108.04-20.95 106.04-12.85Q103.64-3.2 102.99-0.15L102.99-0.15ZM115.64-1.9Q115.59-1.6 115.42-0.73 115.24 0.15 114.57 0.5 113.89 0.85 112.44 0.85L112.44 0.85Q110.79 0.85 110.04 0.5 109.29 0.15 109.29-1L109.29-1 111.69-10.55Q113.69-18.8 114.34-21.05L114.34-21.05 113.09-22.55Q112.94-22.7 112.94-22.9L112.94-22.9Q112.94-23.4 114.04-23.73 115.14-24.05 117.09-24.05L117.09-24.05Q118.84-24.05 119.44-23.08 120.04-22.1 120.19-20.55L120.19-20.55 119.84-19.25Q121.44-21.2 123.57-22.48 125.69-23.75 127.34-23.75L127.34-23.75Q129.49-23.75 130.69-23 131.89-22.25 131.89-21.05L131.89-21.05Q131.89-20 131.17-18.88 130.44-17.75 129.34-16.98 128.24-16.2 127.19-16.1L127.19-16.1Q126.19-16.1 125.84-16.35 125.49-16.6 125.49-17.1L125.49-17.1 125.79-18.75Q121.79-17.65 118.54-13.45L118.54-13.45 115.64-1.9ZM136.09-29.7Q136.09-31.25 137.06-32.45 138.04-33.65 139.79-33.65L139.79-33.65Q141.64-33.65 143.01-32.5 144.39-31.35 144.39-29.9L144.39-29.9Q144.39-28.45 142.99-27.4 141.59-26.35 139.74-26.35L139.74-26.35Q137.94-26.35 137.01-27.28 136.09-28.2 136.09-29.7L136.09-29.7ZM141.34-20.85Q138.69-10.05 137.29-4.6L137.29-4.6Q137.09-3.8 137.09-2.85L137.09-2.85 137.14-1.45Q137.14-0.6 136.61-0.25 136.09 0.1 134.39 0.15L134.39 0.15Q132.74 0.15 131.89-0.2 131.04-0.55 131.04-1.7L131.04-1.7Q131.04-2.25 132.31-7.55 133.59-12.85 135.79-21.35L135.79-21.35 134.64-22.85Q134.49-23 134.49-23.2L134.49-23.2Q134.49-23.7 135.59-24.03 136.69-24.35 138.64-24.35L138.64-24.35Q140.34-24.35 140.81-23.38 141.29-22.4 141.34-20.85L141.34-20.85ZM154.64-18.1L151.49-5.5Q151.49-4.35 152.09-3.68 152.69-3 153.79-3L153.79-3Q155.29-3 156.26-3.88 157.24-4.75 158.34-6.35L158.34-6.35Q159.14-7.5 159.64-8 160.14-8.5 160.79-8.5L160.79-8.5Q162.09-8.5 162.64-8.18 163.19-7.85 163.19-6.85L163.19-6.85Q163.19-6.4 163.09-5.78 162.99-5.15 162.84-4.85L162.84-4.85Q161.64-2.3 158.91-0.45 156.19 1.4 152.74 1.4L152.74 1.4Q149.29 1.4 147.54-0.28 145.79-1.95 145.79-5.05L145.79-5.05Q145.79-5.5 146.24-7.4 146.69-9.3 147.39-11.95L147.39-11.95 148.79-17.65 145.74-17.4Q145.14-17.4 144.84-17.85 144.54-18.3 144.54-18.95L144.54-18.95Q144.54-20.2 145.44-21.45L145.44-21.45Q145.54-21.6 146.44-21.75 147.34-21.9 148.64-22.05L148.64-22.05 149.99-22.2 151.69-29.5Q152.19-30.8 153.21-31.53 154.24-32.25 155.14-32.25L155.14-32.25Q156.14-32.25 156.84-31.65 157.54-31.05 157.59-30.25L157.59-30.25 155.79-22.75Q157.74-23 159.41-23.18 161.09-23.35 162.04-23.35L162.04-23.35Q163.94-23.35 163.94-21.15L163.94-21.15Q163.94-20.3 163.21-19.63 162.49-18.95 161.64-18.8L161.64-18.8 154.64-18.1ZM179.98-2.1Q178.28-0.5 176.68 0.28 175.08 1.05 173.08 1.05L173.08 1.05Q169.78 1.05 168.01-1 166.23-3.05 166.23-6.45L166.23-6.45Q166.23-7.45 166.53-8.65L166.53-8.65 169.88-21.7Q170.18-22.8 170.96-23.33 171.73-23.85 173.48-23.85L173.48-23.85Q176.08-23.85 176.08-22.4L176.08-22.4Q176.08-21.8 175.73-20.5L175.73-20.5 172.38-7.1Q172.23-6.5 172.23-5.9L172.23-5.9Q172.23-4.85 172.78-4.2 173.33-3.55 174.53-3.55L174.53-3.55Q176.08-3.55 177.88-4.45 179.68-5.35 180.93-6.65L180.93-6.65 181.88-10.6Q182.83-14.6 184.08-19.25L184.08-19.25Q184.63-21.25 185.51-22.53 186.38-23.8 188.28-23.8L188.28-23.8Q190.93-23.8 190.93-22.2L190.93-22.2Q190.93-21.95 190.81-21.58 190.68-21.2 190.63-20.95L190.63-20.95 188.98-14.1Q186.38-3.2 185.58-0.15L185.58-0.15Q184.28 4.85 182.63 7.7 180.98 10.55 178.51 11.8 176.03 13.05 172.18 13.05L172.18 13.05Q169.73 13.05 168.16 12.35 166.58 11.65 165.86 10.65 165.13 9.65 165.13 8.8L165.13 8.8Q165.13 6.35 167.83 6.35L167.83 6.35Q168.58 6.35 169.06 6.65 169.53 6.95 170.03 7.5L170.03 7.5Q170.78 8.2 171.41 8.55 172.03 8.9 173.13 8.9L173.13 8.9Q173.98 8.9 175.03 8.2 176.08 7.5 177.08 6 178.08 4.5 178.73 2.25L178.73 2.25 179.98-2.1ZM216.73 1.05Q210.78 1.05 207.83-2.8 204.88-6.65 204.88-13.25L204.88-13.25Q204.88-18.7 207.23-23.35 209.58-28 213.78-30.75 217.98-33.5 223.23-33.5L223.23-33.5Q228.33-33.5 231.4-30.03 234.48-26.55 234.48-19.65L234.48-19.65Q234.48-14.75 232.2-9.93 229.93-5.1 225.88-2.02 221.83 1.05 216.73 1.05L216.73 1.05ZM217.43-3.45Q219.88-3.45 222.23-6.2 224.58-8.95 226.05-13.25 227.53-17.55 227.53-22L227.53-22Q227.53-25.4 226.4-26.93 225.28-28.45 222.43-28.45L222.43-28.45Q219.28-28.45 216.83-25.7 214.38-22.95 213.03-18.85 211.68-14.75 211.68-10.9L211.68-10.9Q211.68-8.65 212.5-6.95 213.33-5.25 214.65-4.35 215.98-3.45 217.43-3.45L217.43-3.45ZM260.68-26.35Q260.43-27.15 258.75-27.78 257.08-28.4 254.38-28.4L254.38-28.4Q251.43-28.4 249.78-26.75 248.13-25.1 248.13-22.6L248.13-22.6Q248.13-21.05 249.25-20.23 250.38-19.4 252.73-18.4L252.73-18.4 254.53-17.65 256.03-16.95Q258.73-15.75 260.3-14.78 261.88-13.8 262.98-12.1 264.08-10.4 264.08-7.75L264.08-7.75Q264.08-4.9 262.2-2.83 260.33-0.75 256.98 0.33 253.63 1.4 249.18 1.4L249.18 1.4Q245.88 1.4 243 0.38 240.13-0.65 238.45-2.2 236.78-3.75 236.78-5.25L236.78-5.25Q236.78-6.7 238.03-7.63 239.28-8.55 241.58-8.9L241.58-8.9Q241.83-7.45 243.28-6.3 244.73-5.15 246.65-4.48 248.58-3.8 250.03-3.8L250.03-3.8Q252.68-3.8 254.75-4.85 256.83-5.9 256.83-7.75L256.83-7.75Q256.83-9.3 255.35-10.33 253.88-11.35 250.93-12.55L250.93-12.55 248.28-13.75Q245.03-15.35 243.13-17.35 241.23-19.35 241.23-22.65L241.23-22.65Q241.23-26.3 243.28-28.58 245.33-30.85 248.25-31.85 251.18-32.85 253.98-32.85L253.98-32.85Q258.43-32.85 261.3-31.7 264.18-30.55 265.48-28.8 266.78-27.05 266.78-25.2L266.78-25.2Q266.78-24.15 266.25-22.65 265.73-21.15 264.7-20.05 263.68-18.95 262.23-18.95L262.23-18.95Q259.73-18.95 259.73-21.55L259.73-21.55Q259.83-22.35 260.18-24.18 260.53-26 260.68-26.35L260.68-26.35Z" opacity="1" transform="matrix(1,0,0,1,0,0)" fill="#113f67" class="wordmark-text-0" data-fill-palette-color="primary" id="text-0"></path></svg></g></svg></g></svg></g></svg></g><g transform="matrix(1,0,0,1,434.51655329505195,0)"><svg viewBox="0 0 172.51536912159597 95.83864647268634" height="95.83864647268634" width="172.51536912159597"><g><svg xmlns="http://www.w3.org/2000/svg" xmlns:xlink="http://www.w3.org/1999/xlink" version="1.1" x="0" y="0" viewBox="5.426 27.230999999999998 89.148 49.525000000000006" enable-background="new 0 0 100 100" xml:space="preserve" height="95.83864647268634" width="172.51536912159597" class="icon-icon-0" data-fill-palette-color="accent" id="icon-0"><g fill="#87c0cd" data-fill-palette-color="accent"><polygon points="90.437,76.756 94.115,71.788 90.435,66.823 90.436,69.432 5.426,71.128 5.426,72.745 90.437,74.298  " fill="#87c0cd" data-fill-palette-color="accent"></polygon></g><circle cx="23.936" cy="31.624" r="4.4" fill="#87c0cd" data-fill-palette-color="accent"></circle><path d="M12.595 45.584c0 0 5.281 5.988 6.883 5.984v0.004-0.004c0.112 0 0.208-0.027 0.281-0.09 0.909-0.786-2.843-5.556-4.268-7.301 0.392-0.166 0.746-0.335 1.004-0.476 0.632-0.345 1.783-1.023 2.689-1.58l-1.025 4.5c0.711 0.98 1.244 1.824 1.625 2.55 1.509 2.549 0 2.94 0 2.94-0.097 0.029-0.198 0.051-0.306 0.051-0.41 0-0.966-0.27-1.589-0.693 0.11 0.357 0.241 0.706 0.406 1.036 0.005 0.256 0.008 0.48 0.01 0.69h2.277l3.284-3.381v3.381h0.334v-3.412l3.314 3.412h1.867c0.001-0.108 0.002-0.215 0.003-0.335 0.261-0.448 0.47-0.929 0.621-1.435-0.652 0.45-1.233 0.737-1.659 0.737-0.092 0-0.175-0.023-0.259-0.043-1.647-0.047 0-3.038 0-3.038 0.384-0.718 0.912-1.547 1.611-2.508l-1.005-4.42c0.898 0.55 2.015 1.209 2.636 1.547 0.258 0.14 0.612 0.31 1.004 0.476-1.425 1.744-5.177 6.515-4.268 7.301 0.073 0.063 0.169 0.089 0.28 0.09v0.003-0.003c1.601 0.006 6.884-5.984 6.884-5.984 0.295-0.341 0.412-0.772 0.368-1.188 0.01-0.109 0.003-0.233-0.045-0.389-1.342-4.306-8.674-6.721-9.102-6.545-0.713-0.504-1.575-0.812-2.515-0.812-0.954 0-1.827 0.316-2.546 0.833-0.048-0.324-7.739 2.101-9.118 6.524-0.049 0.156-0.056 0.279-0.045 0.389C12.183 44.811 12.3 45.243 12.595 45.584z" fill="#87c0cd" data-fill-palette-color="accent"></path><path d="M38.657 45.584c0 0 0.054 0.061 0.131 0.147 0.021 0.024 0.039 0.043 0.065 0.072 0.042 0.047 0.088 0.098 0.144 0.159 0.032 0.035 0.065 0.071 0.1 0.11 0.061 0.067 0.121 0.132 0.192 0.21 0.042 0.046 0.089 0.096 0.134 0.146 0.256 0.277 0.56 0.602 0.902 0.959 0.062 0.064 0.122 0.127 0.185 0.193 0.098 0.101 0.197 0.203 0.299 0.307 0.071 0.073 0.143 0.145 0.216 0.219 0.105 0.106 0.21 0.212 0.318 0.319 0.073 0.073 0.147 0.145 0.221 0.218 0.111 0.109 0.221 0.217 0.333 0.325 0.07 0.067 0.14 0.132 0.209 0.198 0.206 0.195 0.412 0.385 0.618 0.57 0.08 0.072 0.16 0.145 0.239 0.214 0.102 0.09 0.202 0.173 0.302 0.258 0.083 0.07 0.166 0.14 0.248 0.207 0.098 0.08 0.193 0.155 0.288 0.229 0.081 0.063 0.161 0.122 0.239 0.18 0.09 0.066 0.18 0.132 0.266 0.191 0.083 0.057 0.161 0.104 0.24 0.153 0.395 0.246 0.74 0.401 0.99 0.4v0.004-0.004c0.112 0 0.208-0.027 0.281-0.09 0.197-0.17 0.167-0.535-0.003-1.009h0c0 0 0-0.001 0-0.001-0.042-0.117-0.097-0.244-0.156-0.374-0.016-0.035-0.03-0.068-0.047-0.104-0.062-0.131-0.131-0.266-0.207-0.407-0.019-0.035-0.039-0.071-0.058-0.107-0.083-0.15-0.17-0.303-0.265-0.461-0.005-0.008-0.01-0.017-0.015-0.025-0.43-0.712-0.965-1.487-1.51-2.23-0.012-0.017-0.024-0.033-0.036-0.049-0.13-0.176-0.257-0.348-0.386-0.518-0.013-0.017-0.026-0.034-0.039-0.051-0.528-0.698-1.025-1.324-1.404-1.791-0.016-0.019-0.032-0.039-0.047-0.058-0.03-0.037-0.065-0.081-0.094-0.116 0.392-0.166 0.746-0.335 1.004-0.476 0.632-0.345 1.783-1.023 2.689-1.58l-1.025 4.5c0.711 0.98 1.244 1.824 1.625 2.55 0.307 0.518 0.484 0.943 0.579 1.298l3.416 0.001-0.001 2.725h0.264v-2.725l3.464 0c0.021-0.069 0.041-0.139 0.064-0.207l-3.585-0.001 0.002-5.181 5.181 0.001 0 2.247c0.166-0.243 0.341-0.493 0.531-0.754l-1.005-4.419c0.898 0.55 2.015 1.209 2.636 1.547 0.258 0.14 0.612 0.31 1.004 0.476-0.065 0.08-0.143 0.177-0.218 0.269-0.015 0.018-0.028 0.035-0.043 0.054-0.074 0.091-0.149 0.185-0.23 0.286-0.015 0.018-0.03 0.038-0.045 0.057-0.148 0.186-0.304 0.384-0.469 0.596-0.028 0.036-0.056 0.071-0.084 0.108-0.273 0.351-0.556 0.725-0.845 1.116-0.038 0.052-0.076 0.104-0.114 0.156-0.147 0.201-0.292 0.403-0.436 0.607-0.05 0.07-0.099 0.141-0.148 0.211-0.08 0.115-0.158 0.229-0.236 0.343-0.102 0.151-0.202 0.301-0.298 0.45l0 0c-0.196 0.303-0.376 0.596-0.537 0.878v0c-0.082 0.143-0.158 0.283-0.228 0.418l0 0c-0.098 0.19-0.181 0.368-0.252 0.537h0c0 0 0 0 0 0.001-0.12 0.289-0.188 0.537-0.205 0.743h-0.01c-0.004 0.04 0.005 0.069 0.006 0.105 0.001 0.049-0.002 0.101 0.008 0.143 0.019 0.091 0.054 0.169 0.117 0.223 0 0 0 0 0 0 0.001 0.001 0.002 0 0.003 0.001 0.06 0.051 0.136 0.074 0.225 0.079 0.019 0.002 0.033 0.01 0.053 0.01v0.003-0.003c0.252 0.001 0.602-0.157 1.002-0.407 0.074-0.046 0.147-0.09 0.225-0.143 0.089-0.061 0.181-0.128 0.274-0.196 0.076-0.056 0.152-0.112 0.23-0.173 0.098-0.076 0.197-0.154 0.298-0.236 0.077-0.063 0.154-0.128 0.233-0.194 0.105-0.089 0.209-0.176 0.316-0.27 0.071-0.062 0.142-0.127 0.213-0.191 0.223-0.2 0.446-0.405 0.669-0.617 0.059-0.056 0.119-0.111 0.178-0.168 0.116-0.111 0.228-0.222 0.342-0.333 0.072-0.071 0.143-0.14 0.214-0.211 0.11-0.109 0.217-0.216 0.324-0.324 0.07-0.071 0.139-0.141 0.208-0.211 0.104-0.106 0.205-0.209 0.304-0.312 0.064-0.066 0.124-0.129 0.185-0.193 0.339-0.354 0.642-0.676 0.896-0.952 0.05-0.054 0.1-0.108 0.146-0.158 0.065-0.07 0.119-0.13 0.175-0.191 0.044-0.049 0.085-0.093 0.123-0.135 0.049-0.054 0.09-0.099 0.128-0.142 0.035-0.039 0.06-0.067 0.086-0.096 0.028-0.031 0.048-0.054 0.065-0.073 0.013-0.014 0.014-0.016 0.022-0.025 0.008-0.009 0.028-0.032 0.028-0.032 0.283-0.327 0.406-0.737 0.377-1.136-0.001-0.017-0.007-0.034-0.009-0.051 0.01-0.109 0.003-0.233-0.045-0.389-1.342-4.306-8.674-6.72-9.102-6.545-0.713-0.504-1.575-0.812-2.515-0.812-0.954 0-1.827 0.316-2.546 0.833-0.047-0.324-7.739 2.101-9.118 6.524-0.049 0.156-0.056 0.279-0.045 0.389C38.244 44.811 38.362 45.243 38.657 45.584z" fill="#87c0cd" data-fill-palette-color="accent"></path><circle cx="49.997" cy="31.624" r="4.4" fill="#87c0cd" data-fill-palette-color="accent"></circle><circle cx="76.058" cy="31.624" r="4.4" fill="#87c0cd" data-fill-palette-color="accent"></circle><path d="M54.691 48.154l0.001-2.536-4.107-0.001-0.002 4.107 3.256 0.001c0.162-0.375 0.309-0.643 0.309-0.643C54.303 48.792 54.488 48.48 54.691 48.154z" fill="#87c0cd" data-fill-palette-color="accent"></path><path d="M50.64 51.006v2.645 1.35h3.995v-1.35-1.523c-0.078 0.015-0.158 0.034-0.228 0.034-0.092 0-0.175-0.023-0.259-0.043-0.667-0.019-0.789-0.523-0.703-1.113H50.64z" fill="#87c0cd" data-fill-palette-color="accent"></path><path d="M45.745 52.119c-0.084 0.021-0.167 0.043-0.259 0.043-0.07 0-0.15-0.019-0.228-0.034v2.873h3.995v-3.995h-2.805C46.534 51.596 46.412 52.1 45.745 52.119z" fill="#87c0cd" data-fill-palette-color="accent"></path><path d="M44.312 51.703l0.003-0.004c-0.027-0.016-0.055-0.035-0.082-0.052l-3.182-2.242-2.301 3.266 1.39 0.979h-0.02l1.896 1.328 0.931-1.328h0l1.37-1.944L44.312 51.703z" fill="#87c0cd" data-fill-palette-color="accent"></path><polygon points="23.359,54.907 23.359,51.107 19.668,54.907 " fill="#87c0cd" data-fill-palette-color="accent"></polygon><polygon points="28.43,54.907 24.739,51.107 24.739,54.907 " fill="#87c0cd" data-fill-palette-color="accent"></polygon><path d="M72.573 51.058c0.002 0.875-0.667 1.054-0.667 1.054-0.097 0.029-0.198 0.051-0.306 0.051-0.062 0-0.133-0.018-0.202-0.03l-0.001 2.919 3.994 0.001 0-1.401 0 0 0.001-2.593L72.573 51.058z" fill="#87c0cd" data-fill-palette-color="accent"></path><path d="M64.341 44.447c-0.029 0.399 0.094 0.81 0.377 1.136 0 0 0.055 0.062 0.133 0.149 0.02 0.023 0.037 0.041 0.062 0.069 0.045 0.05 0.095 0.105 0.155 0.171 0.026 0.029 0.052 0.057 0.08 0.088 0.067 0.074 0.136 0.149 0.217 0.237 0.024 0.027 0.051 0.055 0.077 0.083 0.295 0.32 0.661 0.71 1.074 1.14 0.012 0.013 0.024 0.025 0.037 0.038 0.128 0.133 0.26 0.268 0.396 0.406 0.034 0.035 0.068 0.069 0.102 0.104 0.135 0.137 0.272 0.273 0.412 0.412 0.032 0.032 0.065 0.064 0.097 0.096 0.619 0.61 1.266 1.212 1.876 1.72 0.04 0.033 0.081 0.068 0.12 0.1 0.126 0.103 0.248 0.199 0.369 0.292 0.05 0.038 0.099 0.075 0.148 0.112 0.115 0.086 0.228 0.166 0.337 0.24 0.048 0.032 0.092 0.059 0.138 0.088 0.422 0.269 0.789 0.44 1.052 0.44v0.004-0.004c0.112 0 0.208-0.027 0.281-0.09 0.19-0.164 0.165-0.51 0.012-0.957h0c0 0 0 0 0-0.001-0.045-0.132-0.103-0.274-0.171-0.424-0.004-0.009-0.008-0.017-0.012-0.026-0.814-1.774-3.062-4.626-4.097-5.892 0.392-0.166 0.746-0.335 1.004-0.476 0.632-0.345 1.783-1.023 2.689-1.58l-1.025 4.5c0.187 0.258 0.36 0.505 0.522 0.744l0-2.236 5.126 0.001v5.185l-3.503-0.001c0.021 0.066 0.056 0.145 0.071 0.206l3.432 0.001-0.001 2.673h0.264v-2.674l3.417 0c0.02-0.07 0.043-0.139 0.066-0.207l-3.541-0.001 0.002-5.181 5.181 0.001 0 2.152c0.157-0.229 0.324-0.465 0.502-0.711l-1.005-4.42c0.898 0.55 2.015 1.209 2.636 1.547 0.258 0.14 0.612 0.31 1.004 0.476-1.034 1.266-3.283 4.118-4.097 5.892-0.004 0.009-0.008 0.017-0.012 0.026-0.068 0.15-0.126 0.292-0.171 0.425 0 0 0 0 0 0h0c-0.152 0.447-0.177 0.793 0.012 0.957 0.211 0.183 0.6 0.084 1.09-0.195 0.144-0.082 0.299-0.182 0.459-0.293 0.054-0.038 0.112-0.081 0.168-0.121 0.115-0.084 0.232-0.171 0.353-0.265 0.066-0.052 0.133-0.105 0.201-0.16 0.12-0.098 0.242-0.199 0.365-0.305 0.065-0.055 0.128-0.109 0.194-0.166 0.152-0.133 0.304-0.27 0.458-0.411 0.036-0.033 0.072-0.064 0.108-0.098 0.191-0.176 0.381-0.357 0.571-0.539 0.057-0.055 0.112-0.109 0.169-0.164 0.135-0.132 0.269-0.262 0.4-0.394 0.067-0.067 0.132-0.133 0.199-0.199 0.119-0.12 0.236-0.238 0.35-0.356 0.063-0.065 0.126-0.129 0.187-0.192 0.122-0.126 0.238-0.247 0.352-0.366 0.045-0.048 0.092-0.096 0.136-0.142 0.152-0.16 0.296-0.313 0.429-0.456 0.033-0.035 0.059-0.064 0.09-0.097 0.103-0.111 0.199-0.215 0.287-0.311 0.038-0.042 0.069-0.076 0.104-0.114 0.069-0.076 0.132-0.145 0.188-0.207 0.035-0.039 0.063-0.07 0.092-0.102 0.05-0.056 0.088-0.098 0.121-0.135 0.014-0.016 0.025-0.027 0.035-0.039 0.036-0.04 0.058-0.065 0.058-0.065 0.11-0.128 0.189-0.27 0.251-0.418 0.097-0.23 0.143-0.475 0.125-0.718-0.001-0.017-0.007-0.034-0.009-0.052 0.01-0.109 0.003-0.233-0.045-0.389-1.342-4.306-8.674-6.721-9.102-6.545-0.713-0.504-1.575-0.812-2.515-0.812-0.954 0-1.827 0.316-2.546 0.833-0.048-0.324-7.739 2.101-9.118 6.524-0.049 0.156-0.056 0.279-0.045 0.389C64.348 44.413 64.342 44.43 64.341 44.447z" fill="#87c0cd" data-fill-palette-color="accent"></path><path d="M76.731 51.057v2.594 1.401h3.995v-1.401-1.527c-0.089 0.019-0.179 0.039-0.258 0.039-0.092 0-0.175-0.023-0.259-0.043-0.648-0.018-0.783-0.494-0.712-1.062H76.731z" fill="#87c0cd" data-fill-palette-color="accent"></path><path d="M75.394 45.667l-4.11-0.001-0.001 2.527c0.214 0.346 0.407 0.675 0.566 0.978 0.131 0.222 0.225 0.416 0.312 0.606l3.231 0.001L75.394 45.667z" fill="#87c0cd" data-fill-palette-color="accent"></path><path d="M80.781 48.106l0.001-2.437-4.106-0.001-0.002 4.107 3.206 0.001c0.17-0.402 0.33-0.695 0.33-0.695C80.372 48.778 80.566 48.451 80.781 48.106z" fill="#87c0cd" data-fill-palette-color="accent"></path><path d="M81.503 53.195c0.001-0.108 0.002-0.215 0.003-0.335 0.261-0.448 0.47-0.929 0.621-1.435-0.307 0.212-0.597 0.384-0.864 0.511v1.259H81.503z" fill="#87c0cd" data-fill-palette-color="accent"></path><path d="M70.428 53.195h0.434l0-1.233c-0.262-0.12-0.548-0.287-0.851-0.492 0.11 0.357 0.241 0.706 0.406 1.036C70.423 52.761 70.426 52.985 70.428 53.195z" fill="#87c0cd" data-fill-palette-color="accent"></path><path d="M55.442 53.195c0.001-0.108 0.002-0.215 0.003-0.335 0.261-0.448 0.47-0.929 0.621-1.435-0.318 0.22-0.619 0.399-0.894 0.527v1.243H55.442z" fill="#87c0cd" data-fill-palette-color="accent"></path><path d="M44.771 53.195l0-1.212-0.414 0.591c0.004 0.228 0.007 0.431 0.009 0.621H44.771z" fill="#87c0cd" data-fill-palette-color="accent"></path><polyline points="94.574,60.844 94.574,53.651 91.736,53.651 81.263,53.651 81.263,54.108 81.263,55.59 76.194,55.59 76.194,54.108   76.194,53.651 75.93,53.651 75.93,55.59 70.861,55.589 70.862,53.651 55.172,53.651 55.172,54.108 55.172,55.538 50.103,55.538   50.103,54.108 50.103,53.651 49.839,53.651 49.839,55.538 44.771,55.537 44.771,54.108 44.771,54.108 44.771,53.651 43.603,53.651   42.148,55.728 39.183,53.651 27.956,53.651 28.401,54.108 28.401,54.108 29.204,54.935 29.697,55.443 24.199,55.444 24.199,54.108   24.199,53.651 23.865,53.651 23.865,54.108 23.865,55.474 18.368,55.474 20.138,53.651 8.264,53.651 5.426,53.651 5.426,60.844 " fill="#87c0cd" data-fill-palette-color="accent"></polyline><line x1="8.264" y1="60.844" x2="91.736" y2="60.844" fill="#87c0cd" data-fill-palette-color="accent"></line></svg></g></svg></g></svg></g><defs></defs></svg><rect width="395.52" height="62.444988563318624" fill="none" stroke="none" visibility="hidden"></rect></g></svg></g></svg>